<svg width="1024" height="1024" viewBox="0 0 1024 1024" fill="none" xmlns="http://www.w3.org/2000/svg">
<path d="M512 98.883L704.821 209.594L704.325 209.842L708.35 212.165L870 305.444V718.556L512 925.114L154 718.556V305.445L315.648 212.266L319.978 209.771L319.401 209.523L512 98.883ZM481.45 845.765L485.2 847.93V843.6V530.2V528.756L483.949 528.034L211.249 370.734L207.5 368.572V372.9V547.8V549.255L208.765 549.974L337.1 622.855V761V762.444L338.35 763.165L481.45 845.765ZM374.144 241.532L372.896 240.815L371.65 241.535L236.95 319.335L238.2 321.5L236.951 323.666L510.951 481.666L512.2 482.386L513.449 481.666L787.349 323.666L791.103 321.5L787.349 319.335L652.149 241.335L650.903 240.615L649.655 241.332L511.799 320.517L374.144 241.532ZM815.234 550.474L816.5 549.756V548.3V373.1V368.772L812.751 370.934L540.051 528.234L538.8 528.956V530.4V843.5V847.828L542.549 845.666L686.449 762.666L687.7 761.944V760.5V622.856L815.234 550.474Z" fill="white" stroke="black" stroke-width="5"/>
</svg>
